<svg xmlns="http://www.w3.org/2000/svg" width="24" height="24" viewBox="0 0 24 24"><defs><style>.a{fill:#49b742;}</style></defs><path class="a" d="M22.93,9.682c-.451-.068-.915-.132-1.377-.193a.136.136,0,0,1-.116-.1,9.741,9.741,0,0,0-.92-2.221.137.137,0,0,1,.013-.151c.284-.37.566-.743.838-1.11a1.265,1.265,0,0,0-.124-1.637L19.727,2.756a1.265,1.265,0,0,0-1.637-.124c-.366.271-.74.553-1.11.838a.137.137,0,0,1-.151.013,9.741,9.741,0,0,0-2.221-.92.136.136,0,0,1-.1-.116c-.06-.463-.125-.926-.193-1.377A1.265,1.265,0,0,0,13.073,0H10.927A1.265,1.265,0,0,0,9.683,1.07c-.067.451-.132.914-.193,1.377a.136.136,0,0,1-.1.116,9.744,9.744,0,0,0-2.221.92.137.137,0,0,1-.151-.013c-.37-.285-.744-.567-1.11-.838a1.265,1.265,0,0,0-1.637.124L2.756,4.273A1.265,1.265,0,0,0,2.632,5.91c.272.368.554.741.838,1.11a.137.137,0,0,1,.013.151,9.742,9.742,0,0,0-.92,2.221.136.136,0,0,1-.116.1c-.462.06-.926.125-1.377.193A1.265,1.265,0,0,0,0,10.927v2.146a1.265,1.265,0,0,0,1.07,1.245c.452.068.915.132,1.377.193a.136.136,0,0,1,.116.1,9.742,9.742,0,0,0,.92,2.221.137.137,0,0,1-.013.151c-.285.37-.567.744-.838,1.11a1.265,1.265,0,0,0,.124,1.637l1.517,1.517a1.265,1.265,0,0,0,1.637.124c.366-.271.74-.553,1.11-.838a.137.137,0,0,1,.151-.013,9.743,9.743,0,0,0,2.221.92.136.136,0,0,1,.1.116c.06.463.125.926.193,1.377A1.265,1.265,0,0,0,10.927,24h2.146a1.265,1.265,0,0,0,1.245-1.07c.067-.451.132-.914.193-1.377a.136.136,0,0,1,.1-.116,9.745,9.745,0,0,0,2.221-.92.137.137,0,0,1,.151.013c.37.285.744.567,1.11.838a1.265,1.265,0,0,0,1.637-.124l1.517-1.517a1.265,1.265,0,0,0,.124-1.637c-.272-.367-.554-.741-.838-1.11a.137.137,0,0,1-.013-.151,9.743,9.743,0,0,0,.92-2.221.136.136,0,0,1,.116-.1c.462-.06.926-.125,1.377-.193A1.265,1.265,0,0,0,24,13.073V10.927A1.265,1.265,0,0,0,22.93,9.682Zm-.051,3.391a.138.138,0,0,1-.115.136c-.444.067-.9.13-1.356.19a1.254,1.254,0,0,0-1.051.91,8.623,8.623,0,0,1-.814,1.966,1.255,1.255,0,0,0,.1,1.388c.28.364.558.732.825,1.094a.138.138,0,0,1-.015.178l-1.517,1.517a.138.138,0,0,1-.178.015c-.361-.267-.729-.545-1.094-.825a1.255,1.255,0,0,0-1.388-.1,8.624,8.624,0,0,1-1.966.815,1.255,1.255,0,0,0-.91,1.051c-.059.456-.123.912-.19,1.356a.138.138,0,0,1-.136.115H10.927a.138.138,0,0,1-.136-.115c-.066-.444-.13-.9-.19-1.356a1.255,1.255,0,0,0-.91-1.051,8.62,8.62,0,0,1-1.966-.815,1.255,1.255,0,0,0-1.388.1c-.365.281-.733.558-1.094.825a.138.138,0,0,1-.178-.015L3.549,18.935a.137.137,0,0,1-.015-.178c.267-.361.545-.729.825-1.094a1.255,1.255,0,0,0,.1-1.388,8.622,8.622,0,0,1-.815-1.966,1.254,1.254,0,0,0-1.051-.91c-.455-.059-.912-.123-1.356-.19a.138.138,0,0,1-.115-.136V10.927a.138.138,0,0,1,.115-.136c.445-.067.9-.13,1.356-.19a1.254,1.254,0,0,0,1.051-.91,8.618,8.618,0,0,1,.815-1.966,1.255,1.255,0,0,0-.1-1.388c-.28-.364-.557-.731-.825-1.094a.138.138,0,0,1,.015-.178L5.066,3.549a.138.138,0,0,1,.178-.015c.361.267.729.545,1.094.825a1.255,1.255,0,0,0,1.388.1,8.622,8.622,0,0,1,1.966-.815,1.255,1.255,0,0,0,.91-1.051c.06-.456.123-.912.19-1.356a.138.138,0,0,1,.136-.115h2.146a.138.138,0,0,1,.136.115c.066.444.13.9.19,1.356a1.255,1.255,0,0,0,.91,1.051,8.625,8.625,0,0,1,1.966.815,1.255,1.255,0,0,0,1.388-.1c.365-.281.733-.558,1.094-.825a.137.137,0,0,1,.178.015l1.517,1.517a.138.138,0,0,1,.015.178c-.267.362-.545.729-.825,1.094a1.255,1.255,0,0,0-.1,1.388,8.622,8.622,0,0,1,.815,1.966,1.254,1.254,0,0,0,1.051.91c.455.059.912.123,1.356.19a.138.138,0,0,1,.115.136v2.146Z"/><g transform="translate(6.791 6.791)"><path class="a" d="M150.075,144.866a5.209,5.209,0,1,0,5.209,5.209A5.215,5.215,0,0,0,150.075,144.866Zm0,9.3a4.089,4.089,0,1,1,4.089-4.089A4.093,4.093,0,0,1,150.075,154.164Z" transform="translate(-144.866 -144.866)"/></g></svg>