<svg xmlns="http://www.w3.org/2000/svg" width="24" height="24" viewBox="0 0 24 24"><defs><style>.a{fill:#49b742;}</style></defs><path class="a" d="M452.469,366.938a.469.469,0,1,0-.469-.469A.469.469,0,0,0,452.469,366.938Zm0,0" transform="translate(-430.813 -348.844)"/><path class="a" d="M1.406,24H22.594A1.408,1.408,0,0,0,24,22.594V5.156a.469.469,0,0,0-.469-.469H20.25a4.688,4.688,0,0,0-9.375,0H7.313a.469.469,0,0,0-.469.469v5.438H.469A.469.469,0,0,0,0,11.063V22.594A1.408,1.408,0,0,0,1.406,24ZM.938,22.594V20.906H11.813v1.688a.469.469,0,0,1-.469.469H1.406A.469.469,0,0,1,.938,22.594Zm21.656.469H12.669a1.4,1.4,0,0,0,.081-.469V20.906H23.063v1.688A.469.469,0,0,1,22.594,23.063ZM15.563.938a3.754,3.754,0,0,1,3.75,3.75h-7.5A3.747,3.747,0,0,1,15.563.938ZM7.781,5.625h3.094V7.781h-.469a.469.469,0,0,0,0,.938h1.875a.469.469,0,0,0,0-.937h-.469V5.625h7.5V7.781h-.469a.469.469,0,0,0,0,.938h1.875a.469.469,0,0,0,0-.937H20.25V5.625h2.813V19.969H12.75V11.063a.469.469,0,0,0-.469-.469h-4.5Zm4.031,5.906v8.438H.938V11.531Zm0,0"/><path class="a" d="M66.469,286.938v.938a2.813,2.813,0,0,0,5.625,0v-.937a.469.469,0,0,0,0-.937h-.937a.469.469,0,0,0,0,.938v.938a1.875,1.875,0,0,1-3.75,0v-.937a.469.469,0,0,0,0-.937h-.937a.469.469,0,0,0,0,.938Zm0,0" transform="translate(-62.906 -272.594)"/><path class="a" d="M452.469,250.688a.469.469,0,0,0,.469-.469v-3.75a.469.469,0,0,0-.937,0v3.75A.469.469,0,0,0,452.469,250.688Zm0,0" transform="translate(-430.813 -234.469)"/></svg>