<svg xmlns="http://www.w3.org/2000/svg" width="24" height="24" viewBox="0 0 24 24"><defs><style>.a{fill:#49b742;}</style></defs><g transform="translate(0 0)"><path class="a" d="M83.256,321.294l-1.019-.61a2,2,0,0,0-1.028-.284H79.676a3.619,3.619,0,0,0-.93.12l-4.62,1.24a1.611,1.611,0,0,0-1.088,1.009l-4.063-2.2a1.592,1.592,0,0,0-1.087-.18,1.5,1.5,0,0,0-.4.133,1.573,1.573,0,0,0-.687.64,1.6,1.6,0,0,0-.212.8,1.585,1.585,0,0,0,.791,1.384l7.282,4.357a2,2,0,0,0,1.053.3h5.636a2,2,0,0,0,.735-.14l1.174-.463v.6h4v-8h-4Zm-1.468,5.822a1.2,1.2,0,0,1-.44.084H75.711a1.2,1.2,0,0,1-.637-.183l-7.292-4.362a.8.8,0,0,1-.4-.695.813.813,0,0,1,.107-.4.786.786,0,0,1,.344-.317.754.754,0,0,1,.2-.065.842.842,0,0,1,.153-.014.784.784,0,0,1,.392.1l4.406,2.381c.005.024.005.048.012.073a1.6,1.6,0,0,0,1.546,1.184,3.934,3.934,0,0,0,.659-.118l4.156-1.112-.206-.773L75.01,324.01c-.182.042-.418.09-.466.094a.8.8,0,0,1-.773-.589.73.73,0,0,1-.023-.148s0-.1,0-.131a.809.809,0,0,1,.588-.705l4.618-1.235a2.8,2.8,0,0,1,.723-.1h1.533a1.2,1.2,0,0,1,.616.171l1.43.856v4.309Zm2.268-6.316h2.4v6.4h-2.4Zm0,0" transform="translate(-63.256 -304)"/><path class="a" d="M16.5,3.2,14.352,1.054A3.575,3.575,0,0,0,11.806,0H6.778a2.014,2.014,0,0,0-.894.211l-.9.448a1.186,1.186,0,0,1-.58.126L4,.771V0H0V8.8H4V7.6h.68l.242.16A4.41,4.41,0,0,0,7.2,8.493V13.6H24V3.2ZM3.2,8H.8V.8H3.2Zm2.165-.906L4.92,6.8H4V1.571l.377.013a2.008,2.008,0,0,0,.967-.21l.9-.448A1.2,1.2,0,0,1,6.778.8h5.029a2.781,2.781,0,0,1,1.98.82l1.58,1.58h-3.3l-.971-.971-.565.565L13.355,5.62a.8.8,0,1,1-1.132,1.137L9.863,4.4l-.28.24a2.12,2.12,0,0,1-2.7.04l-.232-.188-.5.621.234.19A2.916,2.916,0,0,0,7.2,5.76V7.692A3.607,3.607,0,0,1,5.365,7.094Zm5.69-.374.6.6a1.612,1.612,0,0,0,2.26,0,2.025,2.025,0,1,0,.227-.29A1.573,1.573,0,0,0,14.277,5.6h5.356A2.407,2.407,0,0,0,21.6,7.567V9.233A2.407,2.407,0,0,0,19.633,11.2H11.567A2.407,2.407,0,0,0,9.6,9.233V7.567A2.388,2.388,0,0,0,11.055,6.72ZM14.4,8.4a1.2,1.2,0,1,1,1.2,1.2A1.2,1.2,0,0,1,14.4,8.4Zm8.8,4.4H8V5.927a2.909,2.909,0,0,0,1.8-.46l.682.682A1.6,1.6,0,0,1,9.2,6.8H8.8V10h.4a1.6,1.6,0,0,1,1.6,1.6V12h9.6v-.4A1.6,1.6,0,0,1,22,10h.4V6.8H22a1.6,1.6,0,0,1-1.6-1.6V4.8H13.666l-.8-.8H23.2Zm0,0"/></g></svg>